<svg width="64" height="64" viewBox="0 0 64 64" fill="none" xmlns="http://www.w3.org/2000/svg">
<path fill-rule="evenodd" clip-rule="evenodd" d="M32.84 5.33301C39.32 5.33301 40.264 5.36767 42.9946 5.49301C45.832 5.62367 47.7706 6.07434 49.4666 6.73301C51.2466 7.402 52.8593 8.45129 54.192 9.80767C55.5484 11.1404 56.5977 12.753 57.2666 14.533C57.9253 16.229 58.376 18.1677 58.5066 21.005C58.6347 23.8503 58.6666 24.757 58.6666 31.9997V32.213C58.6666 39.261 58.6347 40.1783 58.5066 42.9943C58.376 45.8317 57.9253 47.7703 57.2666 49.4663C56.5977 51.2463 55.5484 52.8589 54.192 54.1917C52.8593 55.5481 51.2466 56.5973 49.4666 57.2663C47.7706 57.925 45.832 58.3757 42.9946 58.5063C40.1493 58.6343 39.2426 58.6663 32 58.6663H31.7866C24.7386 58.6663 23.8213 58.6343 21.0053 58.5063C18.168 58.3757 16.2293 57.925 14.5333 57.2663C12.7533 56.5973 11.1407 55.5481 9.80798 54.1917C8.4516 52.8589 7.40231 51.2463 6.73331 49.4663C6.07465 47.7703 5.62398 45.8317 5.49331 42.9943C5.36798 40.2637 5.33331 39.317 5.33331 32.8397V31.1597C5.33331 24.6797 5.36798 23.7357 5.49331 21.005C5.62398 18.1677 6.07465 16.229 6.73331 14.533C7.40231 12.753 8.4516 11.1404 9.80798 9.80767C11.1407 8.45129 12.7533 7.402 14.5333 6.73301C16.2293 6.07434 18.168 5.62367 21.0053 5.49301C23.736 5.36767 24.6826 5.33301 31.16 5.33301H32.84ZM32.624 10.1383H31.376C24.8266 10.1383 23.952 10.1677 21.224 10.293C18.624 10.413 17.2133 10.845 16.272 11.2103C15.0266 11.6957 14.1386 12.2717 13.2053 13.205C12.272 14.1383 11.696 15.0263 11.2106 16.2717C10.8453 17.213 10.4106 18.6237 10.2933 21.2237C10.168 23.9517 10.1386 24.8263 10.1386 31.3757V32.6237C10.1386 39.173 10.168 40.0477 10.2933 42.7757C10.4133 45.3757 10.8453 46.7863 11.2106 47.7277C11.696 48.9703 12.2746 49.861 13.2053 50.7943C14.1386 51.7277 15.0266 52.3037 16.272 52.789C17.2133 53.1543 18.624 53.589 21.224 53.7063C24.0346 53.8343 24.8773 53.861 32 53.861H32.2133C39.1386 53.861 39.992 53.8343 42.7733 53.7063C45.376 53.5863 46.7866 53.1543 47.728 52.789C48.9706 52.3037 49.8613 51.7277 50.7946 50.7943C51.728 49.861 52.304 48.973 52.7893 47.7277C53.1546 46.7863 53.5893 45.3757 53.7066 42.7757C53.8346 39.9623 53.8613 39.1223 53.8613 31.9997V31.7863C53.8613 24.861 53.8346 24.0077 53.7066 21.2263C53.5866 18.6237 53.1546 17.213 52.7893 16.2717C52.362 15.1132 51.6804 14.0653 50.7946 13.205C49.9343 12.3193 48.8864 11.6377 47.728 11.2103C46.7866 10.845 45.376 10.4103 42.776 10.293C40.048 10.1677 39.1733 10.1383 32.624 10.1383ZM32 18.3063C33.7982 18.3063 35.5788 18.6605 37.2402 19.3487C38.9015 20.0368 40.4111 21.0455 41.6826 22.317C42.9542 23.5886 43.9628 25.0981 44.651 26.7595C45.3391 28.4208 45.6933 30.2014 45.6933 31.9997C45.6933 33.7979 45.3391 35.5785 44.651 37.2399C43.9628 38.9012 42.9542 40.4108 41.6826 41.6823C40.4111 42.9539 38.9015 43.9625 37.2402 44.6507C35.5788 45.3388 33.7982 45.693 32 45.693C28.3683 45.693 24.8853 44.2503 22.3173 41.6823C19.7493 39.1143 18.3066 35.6314 18.3066 31.9997C18.3066 28.368 19.7493 24.885 22.3173 22.317C24.8853 19.749 28.3683 18.3063 32 18.3063ZM32 23.1117C29.6427 23.1117 27.382 24.0481 25.7152 25.7149C24.0484 27.3817 23.112 29.6424 23.112 31.9997C23.112 34.3569 24.0484 36.6176 25.7152 38.2844C27.382 39.9513 29.6427 40.8877 32 40.8877C34.3572 40.8877 36.6179 39.9513 38.2847 38.2844C39.9516 36.6176 40.888 34.3569 40.888 31.9997C40.888 29.6424 39.9516 27.3817 38.2847 25.7149C36.6179 24.0481 34.3572 23.1117 32 23.1117ZM46.2346 14.565C47.0833 14.565 47.8973 14.9022 48.4974 15.5023C49.0975 16.1024 49.4346 16.9163 49.4346 17.765C49.4346 18.6137 49.0975 19.4276 48.4974 20.0278C47.8973 20.6279 47.0833 20.965 46.2346 20.965C45.386 20.965 44.572 20.6279 43.9719 20.0278C43.3718 19.4276 43.0346 18.6137 43.0346 17.765C43.0346 16.9163 43.3718 16.1024 43.9719 15.5023C44.572 14.9022 45.386 14.565 46.2346 14.565Z" fill="white"/>
</svg>
