<svg width="64" height="64" viewBox="0 0 64 64" fill="none" xmlns="http://www.w3.org/2000/svg">
<path d="M22.1067 54.0094C42.232 54.0094 53.24 37.3347 53.24 22.8761C53.24 22.4014 53.24 21.9294 53.208 21.4627C55.3499 19.9121 57.1983 17.9924 58.6667 15.7934C56.6695 16.6787 54.5508 17.2594 52.3814 17.5161C54.6658 16.1482 56.3754 13.997 57.192 11.4627C55.0446 12.7371 52.6953 13.6353 50.2454 14.1187C48.5957 12.3634 46.4135 11.2009 44.0364 10.8113C41.6593 10.4216 39.2201 10.8265 37.0964 11.9632C34.9726 13.0999 33.2829 14.9051 32.2888 17.0991C31.2947 19.2932 31.0517 21.7539 31.5974 24.1001C27.2469 23.882 22.991 22.7516 19.1058 20.7821C15.2205 18.8126 11.7929 16.0481 9.04537 12.6681C7.64622 15.0766 7.21761 17.9278 7.8468 20.6413C8.47599 23.3547 10.1157 25.7264 12.432 27.2734C10.6914 27.223 8.9884 26.7547 7.46671 25.9081V26.0467C7.46775 28.5728 8.34243 31.0209 9.94243 32.9757C11.5424 34.9305 13.7693 36.2718 16.2454 36.7721C14.6342 37.2113 12.9438 37.2752 11.304 36.9587C12.0031 39.1333 13.3645 41.035 15.1977 42.3977C17.0309 43.7604 19.2442 44.516 21.528 44.5587C19.259 46.3416 16.6608 47.6596 13.882 48.4375C11.1032 49.2154 8.19824 49.4378 5.33337 49.0921C10.3377 52.3036 16.1605 54.007 22.1067 53.9987" fill="white"/>
</svg>
